<svg xmlns="http://www.w3.org/2000/svg" version="1.1" xmlns:xlink="http://www.w3.org/1999/xlink" xmlns:svgjs="http://svgjs.com/svgjs" width="180" height="180"><svg version="1.1" id="SvgjsSvg1000" xmlns="http://www.w3.org/2000/svg" xmlns:xlink="http://www.w3.org/1999/xlink" x="0px" y="0px" viewBox="0 0 180 180" style="enable-background:new 0 0 180 180;" xml:space="preserve">
<style type="text/css">
	.st0{fill:#FFD166;}
</style>
<path class="st0" d="M90,10L90,10c-44.2,0-80,35.8-80,80l0,0c0,44.2,35.8,80,80,80l0,0c44.2,0,80-35.8,80-80l0,0l0,0
	C170,45.8,134.2,10,90,10L90,10z M127.9,78.2l-42.6,73.5c-1.6,2.8-5.1,3.7-7.9,2.2c-2.2-1.3-3.4-3.9-2.8-6.4l11.1-47H57.1
	c-3.2,0-5.8-2.6-5.8-5.8c0-0.3,0-0.5,0.1-0.8l7.7-58c0.4-2.9,2.8-5,5.8-5h34.8c3.2,0,5.8,2.6,5.8,5.8c0,0.5-0.1,1-0.2,1.5L95,69.5
	h27.9c3.2,0,5.8,2.6,5.8,5.8C128.7,76.3,128.4,77.3,127.9,78.2z"></path>
</svg><style>@media (prefers-color-scheme: light) { :root { filter: none; } }
</style></svg>