<svg width="160" height="60" viewBox="0 0 160 60" xmlns="http://www.w3.org/2000/svg" xmlns:xlink="http://www.w3.org/1999/xlink"><title>HOR COLOR</title><desc>Created using Figma</desc><g transform="translate(555 -3942)"><path fill="#FFF" d="M-555 3942h160v60h-160z"/><clipPath id="a" clip-rule="evenodd"><path d="M-585 40H615v4151H-585V40z" fill="#FFF"/></clipPath><g clip-path="url(#a)"><path d="M-585 40H615v4151H-585V40z" fill="#FFF"/><use xlink:href="#b" transform="translate(-585 3761)" fill="#F8F8F8"/><use xlink:href="#c" transform="translate(-536.695 3976.77)" fill="#92278F"/><use xlink:href="#d" transform="translate(-527.203 3991.09)" fill="url(#e)"/><use xlink:href="#f" transform="translate(-530.593 3954.26)" fill="#00A68C"/><use xlink:href="#g" transform="translate(-555 3953.59)" fill="url(#h)"/><use xlink:href="#i" transform="translate(-519.746 3942)" fill="url(#j)"/><use xlink:href="#k" transform="translate(-510.932 3958.36)"/><use xlink:href="#l" transform="translate(-510.932 3988.36)"/></g></g><defs><linearGradient id="e" x2="1" gradientUnits="userSpaceOnUse" gradientTransform="matrix(175.299 0 0 176.295 684.226 1083.89)"><stop offset="0" stop-color="#92278F"/><stop offset="1" stop-color="#C251D7"/></linearGradient><linearGradient id="h" x2="1" gradientUnits="userSpaceOnUse" gradientTransform="matrix(35.2542 0 0 35.4545 0 17.727)"><stop offset="0" stop-color="#FFBE15"/><stop offset="1" stop-color="#FFD400"/></linearGradient><linearGradient id="j" x2="1" gradientUnits="userSpaceOnUse" gradientTransform="matrix(605.898 0 0 631.909 1136.38 315.955)"><stop offset="0" stop-color="#00A68C"/><stop offset="1" stop-color="#17C693"/></linearGradient><path id="b" fill-rule="evenodd" d="M0 0h1200v431H0V0z"/><path id="c" d="M17.145 23.176a1.172 1.172 0 0 1-.935-.452L.23 1.807A1.107 1.107 0 0 1 .095.683c.164-.37.52-.628.931-.675.412-.047.819.124 1.066.448l15.981 20.917c.264.342.306.8.11 1.184a1.164 1.164 0 0 1-1.038.625v-.006z"/><path id="d" d="M5.085 10.227c2.808 0 5.084-2.29 5.084-5.113C10.17 2.289 7.893 0 5.085 0S0 2.29 0 5.114s2.277 5.113 5.085 5.113z"/><path id="f" d="M1.119 12.963c-.476 0-.9-.305-1.057-.76-.156-.455-.01-.96.364-1.26L14.212.279a1.109 1.109 0 0 1 1.133-.204 1.136 1.136 0 0 1 .249 1.98L1.823 12.725a1.11 1.11 0 0 1-.705.238z"/><path id="g" d="M17.627 35.455c9.735 0 17.627-7.937 17.627-17.728C35.254 7.937 27.362 0 17.627 0S0 7.937 0 17.727s7.892 17.728 17.627 17.728z"/><path id="i" d="M9.153 19.09c5.054 0 9.152-4.273 9.152-9.545C18.305 4.274 14.207 0 9.153 0 4.098 0 0 4.274 0 9.545c0 5.272 4.098 9.546 9.153 9.546z"/><path id="k" fill-rule="evenodd" d="M69.222 13.473v11.4h-4.946v-11.4h-1.718V9.466h1.718V4.49h4.946v4.975h3.057v4.007h-3.057zm-60.187-.311c.79 0 2.026.172 3.228 1.174V9.811c-1.305-.622-2.542-.864-3.881-.864-2.096 0-4.123.553-5.84 2.177C1.099 12.505 0 14.578 0 17.204c0 2.798 1.236 4.733 2.405 5.873 1.408 1.381 3.366 2.314 5.942 2.314 1.374 0 2.61-.207 3.916-.933v-4.49c-1.133.967-2.301 1.209-3.16 1.209-1.1 0-2.233-.415-2.989-1.244-.618-.656-1.03-1.624-1.03-2.764 0-1.243.48-2.245 1.134-2.902.343-.345 1.27-1.105 2.817-1.105zM19.65 9.466h-4.947v15.407h4.947v-6.252c0-1.313.103-2.972 1.202-4.146.618-.657 1.409-1.037 2.473-1.037.86 0 1.58.207 2.233.553l.275-4.664a4.94 4.94 0 0 0-1.614-.242c-.962 0-1.821.139-2.646.657-.79.484-1.477 1.278-1.923 2.142V9.466zm18 5.596c-.034-.138-.274-1.106-.996-1.797-.55-.518-1.34-.863-2.335-.863-1.272 0-2.028.518-2.509 1.002a3.47 3.47 0 0 0-.858 1.658h6.698zm4.569 2.97H30.78c0 .83.31 1.935.928 2.626.755.83 1.786.968 2.541.968.722 0 1.478-.139 1.993-.45.069-.034.653-.414 1.065-1.278l4.671.484c-.687 2.177-2.06 3.317-2.953 3.869-1.478.898-3.127 1.14-4.844 1.14-2.301 0-4.328-.414-6.115-2.211-1.34-1.347-2.301-3.385-2.301-5.942 0-2.21.79-4.49 2.336-6.08 1.855-1.865 4.156-2.21 5.874-2.21 1.717 0 4.19.31 6.08 2.313 1.82 1.935 2.164 4.354 2.164 6.254v.518zm7.695-3.696c-.514.518-1.133 1.417-1.133 2.799 0 1.381.584 2.28 1.031 2.763.687.726 1.752 1.21 2.92 1.21.995 0 1.923-.415 2.576-1.072.652-.621 1.202-1.588 1.202-2.901 0-1.106-.412-2.142-1.134-2.833-.755-.726-1.854-1.071-2.747-1.071-1.066 0-2.062.449-2.715 1.105zm6.287-4.87h4.946v15.407h-4.946v-1.865c-1.34 2.072-3.263 2.383-4.534 2.383-2.199 0-4.054-.553-5.737-2.349-1.615-1.727-2.232-3.731-2.232-5.769 0-2.591.961-4.802 2.37-6.218 1.34-1.348 3.194-2.108 5.324-2.108 1.305 0 3.4.311 4.809 2.246V9.466zm22.64 15.407h-4.947V9.465h4.947v15.408zm.412-21.971C79.252 1.278 77.98 0 76.367 0s-2.885 1.278-2.885 2.902c0 1.623 1.27 2.902 2.885 2.902 1.614 0 2.885-1.279 2.885-2.902zm10.374 14.82l-3.882-8.257h-5.428l7.764 15.408h3.092l7.763-15.408h-5.428l-3.881 8.257zm21.059-2.66c-.035-.138-.275-1.106-.997-1.797-.549-.518-1.339-.863-2.335-.863-1.272 0-2.027.518-2.508 1.002a3.472 3.472 0 0 0-.859 1.658h6.699zm4.568 2.97h-11.439c0 .83.31 1.935.928 2.626.755.83 1.786.968 2.542.968.722 0 1.477-.139 1.992-.45.069-.034.653-.414 1.065-1.278l4.672.484c-.687 2.177-2.062 3.317-2.954 3.869-1.477.898-3.126 1.14-4.844 1.14-2.301 0-4.328-.414-6.115-2.211-1.339-1.347-2.3-3.385-2.3-5.942 0-2.21.79-4.49 2.335-6.08 1.855-1.865 4.157-2.21 5.874-2.21 1.717 0 4.19.31 6.08 2.313 1.821 1.935 2.164 4.354 2.164 6.254v.518z"/><path id="l" fill-rule="evenodd" d="M5.41 1.715c.275.221.55.59.715.922l1.082-.719A3.718 3.718 0 0 0 6.015.553C5.41.147 4.805 0 4.052 0 2.072 0 .623 1.272.623 3.172c0 .922.312 1.494.844 2.01.55.536 1.155.793 1.632 1.015l1.1.517c.642.295 1.119.516 1.467.848.44.405.605.885.605 1.438 0 1.236-.788 2.435-2.457 2.435-.623 0-1.229-.148-1.76-.682a2.91 2.91 0 0 1-.734-1.568L0 9.554c.165.737.531 1.586 1.137 2.176.843.83 1.852.996 2.66.996 2.2 0 3.868-1.512 3.868-3.78 0-.886-.256-1.605-.88-2.232-.514-.517-1.174-.85-1.888-1.162l-1.174-.517c-.46-.203-.917-.406-1.284-.775-.33-.313-.46-.59-.46-1.069 0-1.144.845-1.9 2.055-1.9.697 0 1.137.24 1.376.424zm21.313.056c.623.295 1.21.755 1.595 1.143V1.217A5.743 5.743 0 0 0 24.706 0c-3.668 0-6.4 2.73-6.4 6.4 0 3.56 2.695 6.326 6.326 6.326.917 0 2.33-.221 3.686-1.199V9.83c-.22.222-.715.683-1.411 1.033a5.067 5.067 0 0 1-2.275.572c-2.237 0-4.934-1.678-4.934-5.017 0-2.84 2.091-5.127 4.916-5.127.715 0 1.467.185 2.11.48zm13.278 11.213h-1.357V.682h1.357v12.302zm11.526-11.01h4.988V.681h-6.346v12.302h6.346v-1.291h-4.988V6.916h4.842V5.625h-4.842V1.973zM67.119 0v12.819h1.357V3.32l9.536 10.052V.516h-1.357v9.536L67.119 0zm30.113 1.77a6.04 6.04 0 0 1 1.595 1.144V1.217A5.743 5.743 0 0 0 95.214 0c-3.668 0-6.4 2.73-6.4 6.4 0 3.56 2.696 6.326 6.327 6.326.917 0 2.328-.221 3.686-1.199V9.83c-.22.222-.715.683-1.412 1.033a5.065 5.065 0 0 1-2.274.572c-2.237 0-4.934-1.678-4.934-5.017 0-2.84 2.09-5.127 4.915-5.127a5.19 5.19 0 0 1 2.11.48zm13.278.203h4.988V.682h-6.345v12.302h6.345v-1.291h-4.988V6.916h4.841V5.625h-4.841V1.973z"/></defs></svg>