<svg xmlns="http://www.w3.org/2000/svg" viewBox="0 0 1364.52 850"><defs><style>.cls-1{isolation:isolate;}.cls-2{mix-blend-mode:hard-light;}</style></defs><title>organic-shape</title><g class="cls-1"><g id="Capa_1" data-name="Capa 1"><g class="cls-2"><path d="M898,26.24c-1.76-.15-3.55-.24-5.35-.24h-441a63.14,63.14,0,0,0-63.14,63.14h0a63.13,63.13,0,0,0,63.14,63.13H637.3a26.39,26.39,0,0,1,26.39,26.39h0a26.39,26.39,0,0,1-26.39,26.39H104.88a63.13,63.13,0,0,0-63.14,63.13h0a63.14,63.14,0,0,0,63.14,63.14H854a26.38,26.38,0,0,1,26.39,26.39h0A26.38,26.38,0,0,1,854,384.09H290.52a63.14,63.14,0,0,0-63.14,63.14h0a63.14,63.14,0,0,0,63.14,63.14H637.3a26.38,26.38,0,0,1,26.39,26.38h0a26.38,26.38,0,0,1-26.39,26.39H535.53a63.14,63.14,0,0,0-63.14,63.14h0a63.13,63.13,0,0,0,63.14,63.13H784.78a29.69,29.69,0,0,1,29.69,29.69h0a29.68,29.68,0,0,1-29.69,29.68H348.94a63.13,63.13,0,0,0-63.13,63.14h0a63.13,63.13,0,0,0,63.13,63.14H880.43V876c290.41,0,525.83-190.28,525.83-425C1406.26,221,1180.29,33.75,898,26.24Z" transform="translate(-41.74 -26)"/><circle cx="216.74" cy="63.14" r="63.14"/><circle cx="313.8" cy="600.28" r="63.14"/></g></g></g></svg>