<svg xmlns="http://www.w3.org/2000/svg" viewBox="0 0 1364.52 850"><defs><style>.cls-1{isolation:isolate}.cls-2{mix-blend-mode:hard-light}</style></defs><title>organic-shape</title><g class="cls-1"><g class="cls-2" id="Capa_1" data-name="Capa 1"><path d="M898 26.24a63.07 63.07 0 0 0-5.35-.24h-441a63.14 63.14 0 0 0-63.14 63.14 63.13 63.13 0 0 0 63.14 63.13H637.3a26.39 26.39 0 0 1 26.39 26.39 26.39 26.39 0 0 1-26.39 26.39H104.88a63.13 63.13 0 0 0-63.14 63.13 63.14 63.14 0 0 0 63.14 63.14H854a26.38 26.38 0 0 1 26.39 26.39A26.38 26.38 0 0 1 854 384.09H290.52a63.14 63.14 0 0 0-63.14 63.14 63.14 63.14 0 0 0 63.14 63.14H637.3a26.38 26.38 0 0 1 26.39 26.38 26.38 26.38 0 0 1-26.39 26.39H535.53a63.14 63.14 0 0 0-63.14 63.14 63.13 63.13 0 0 0 63.14 63.13h249.25a29.69 29.69 0 0 1 29.69 29.69 29.68 29.68 0 0 1-29.69 29.68H348.94a63.13 63.13 0 0 0-63.13 63.14 63.13 63.13 0 0 0 63.13 63.14h531.49v.94c290.41 0 525.83-190.28 525.83-425 0-230-225.97-417.25-508.26-424.76z" transform="translate(-41.74 -26)"/><circle cx="216.74" cy="63.14" r="63.14"/><circle cx="313.8" cy="600.28" r="63.14"/></g></g></svg>